# xmcd
#
# Track frame offsets:
#	150
#	23870
#	43352
#	66065
#	85775
#	108082
#	129730
#	148150
#	170332
#	190852
#
# Disc length: 2819 seconds
#
# Revision: 1
# Processed by: cddbd v1.5.1PL0 Copyright (c) Steve Scherf et al.
# Submitted via: CDex 1.50Beta5
#
DISCID=890b010a
DTITLE=LOOK - OVER-LOOK
DYEAR=1995
DGENRE=
TTITLE0=MIDNIGHT FLYIN’
TTITLE1=PLANET GIRL
TTITLE2=冬のソリティア
TTITLE3=カイと黄色いTシャツ
TTITLE4=OH,CAROLINE
TTITLE5=ONE DIMEの夢
TTITLE6=RING! RING! RING!
TTITLE7=ラストシーンから始めよう
TTITLE8=AGAIN
TTITLE9=PARTY LINE
EXTD=
EXTT0=
EXTT1=
EXTT2=
EXTT3=
EXTT4=
EXTT5=
EXTT6=
EXTT7=
EXTT8=
EXTT9=
PLAYORDER=
